
        <svg xmlns="http://www.w3.org/2000/svg" xmlns:xlink="http://www.w3.org/1999/xlink" version="1.1" width="3207.068254248325" 
        height="1965.1949231849903" viewBox="0 0 3207.068254248325 1965.1949231849903">
			
			<g transform="scale(10.353412712416251) translate(10, 10)">
				<defs id="SvgjsDefs1815"></defs><g id="SvgjsG1816" featureKey="0LeO0L-0" transform="matrix(12.129379929191611,0,0,12.129379929191611,-9.703504087946765,-72.77628535888873)" fill="#1d3b2c"><path d="M0.8 20 l0 -1.96 l5.54 -12.04 l1.88 0 l0 1.96 l-5.54 12.04 l-1.88 0 z M3.6 20 l1.16 -2.52 l3.46 0 l0 2.52 l-4.62 0 z M1.08 8.52 l0 -2.52 l4.34 0 l-1.16 2.52 l-3.18 0 z"></path></g><g id="SvgjsG1817" featureKey="nameLeftFeature-0" transform="matrix(2.5714283962639133,0,0,2.5714283962639133,113.97142862616752,51.57143207472174)" fill="#1d3b2c"><path d="M0.4 20 l1.14 -5.6 l4.28 0 l-0.86 -4.28 l-0.68 3.44 l-2.58 0 l1.52 -7.56 l3.48 0 l2.2 10.92 l-5.3 0 l-0.62 3.08 l-2.58 0 z M6.96 20 l-0.46 -2.24 l2.58 0 l0.44 2.24 l-2.56 0 z M10.72 16.64 l0 -10.64 l2.52 0 l0 10.64 l-2.52 0 z M10.72 20 l0 -2.52 l2.52 0 l0 2.52 l-2.52 0 z M14.08 20 l0 -2.52 l3.08 0 l0 2.52 l-3.08 0 z M18.76 20 l0 -1.96 l5.54 -12.04 l1.88 0 l0 1.96 l-5.54 12.04 l-1.88 0 z M21.560000000000002 20 l1.16 -2.52 l3.46 0 l0 2.52 l-4.62 0 z M19.04 8.52 l0 -2.52 l4.34 0 l-1.16 2.52 l-3.18 0 z"></path></g><g id="SvgjsG1818" featureKey="inlineMonogramFeature-0" transform="matrix(1,0,0,1,186,85)" fill="#086972"><path d=""></path></g><g id="SvgjsG1819" featureKey="nameRightFeature-0" transform="matrix(2.5850925220185355,0,0,2.5850925220185355,185.85023656956668,51.298148326961126)" fill="#1d3b2c"><path d="M9.0332 12.685500000000001 c1.6113 0.42969 2.6953 1.5137 2.6953 3.4766 c0 2.2754 -1.4746 3.8379 -4.1602 3.8379 l-5.5762 0 l0 -13.926 l4.3652 0 c2.7539 0 4.3652 1.4746 4.3652 3.75 c0 1.2793 -0.57617 2.3242 -1.6895 2.8613 z M6.3672 8.047 l-2.1191 0 l0 3.916 l2.3535 0 c1.25 0 1.9531 -0.88867 1.9531 -1.9922 c0 -1.0938 -0.76172 -1.9238 -2.1875 -1.9238 z M7.1484 17.9687 c1.582 0 2.3145 -0.9668 2.3145 -2.0605 c0 -1.1426 -0.75195 -2.0996 -2.4023 -2.0996 l-2.8125 0 l0 4.1602 l2.9004 0 z M14.658215625 20 l0 -13.926 l4.7656 0 c4.3555 0 6.543 2.832 6.543 6.9531 c0 4.1309 -2.1875 6.9727 -6.543 6.9727 l-4.7656 0 z M16.992215625 17.9102 l2.334 0 c2.8516 0 4.1895 -1.8457 4.1895 -4.8828 c0 -3.0176 -1.3379 -4.873 -4.1895 -4.873 l-2.334 0 l0 9.7559 z M37.85178125 6.074 l2.3438 0 l0 13.926 l-2.3438 0 l0 -5.9473 l-6.4648 0 l0 5.9473 l-2.3438 0 l0 -13.926 l2.3438 0 l0 5.918 l6.4648 0 l0 -5.918 z"></path></g>
			</g>
		</svg>
	